<svg version="1.1" id="Layer_1" xmlns="http://www.w3.org/2000/svg" xmlns:xlink="http://www.w3.org/1999/xlink" x="0px" y="0px"
	 width="100%" viewBox="0 0 851 315" enable-background="new 0 0 851 315" xml:space="preserve">
<path fill="#FEFEFE" opacity="1.000000" stroke="none" 
	d="
M642.000000,316.000000 
	C428.000000,316.000000 214.500000,316.000000 1.000000,316.000000 
	C1.000000,211.000000 1.000000,106.000000 1.000000,1.000000 
	C284.666656,1.000000 568.333313,1.000000 852.000000,1.000000 
	C852.000000,106.000000 852.000000,211.000000 852.000000,316.000000 
	C782.166687,316.000000 712.333313,316.000000 642.000000,316.000000 
M333.503754,234.478622 
	C333.503754,238.879318 333.503754,243.280029 333.503754,247.600998 
	C343.153015,247.600998 351.931671,247.600998 361.319519,247.600998 
	C361.319519,221.402985 361.319519,195.435272 361.319519,168.659805 
	C377.378052,185.695679 396.743744,191.244370 418.321777,188.799835 
	C440.377991,186.301117 460.208405,177.951813 471.321503,157.629639 
	C486.993988,128.970001 486.776184,99.771065 469.536957,71.365372 
	C468.473541,69.613098 467.256470,67.954056 465.724792,65.677917 
	C477.662628,65.677917 488.605438,65.677917 499.947693,65.677917 
	C499.947693,106.824890 499.947693,147.928970 499.947693,189.142151 
	C509.542908,189.142151 518.734863,189.142151 527.838440,189.142151 
	C527.998413,188.439041 528.135437,188.117157 528.135742,187.795151 
	C528.154724,165.964584 528.016663,144.132446 528.250916,122.304291 
	C528.332886,114.671432 528.934753,106.993439 529.987732,99.431931 
	C532.452332,81.733528 544.772522,63.743496 569.400208,65.445488 
	C575.127808,65.841316 580.906128,65.503967 586.492920,65.503967 
	C586.492920,57.283596 586.492920,49.864647 586.492920,42.866577 
	C558.096924,38.649750 535.660645,46.673485 522.497009,74.263519 
	C522.014343,73.819427 521.531616,73.375343 521.048889,72.931259 
	C521.048889,62.719822 521.048889,52.508381 521.048889,42.163403 
	C484.084747,42.163403 447.931885,41.970303 411.782562,42.244556 
	C393.606140,42.382458 377.638702,48.661579 364.644165,61.743256 
	C363.594940,62.799519 362.413391,63.724346 360.136780,65.728271 
	C360.136780,56.954632 360.136780,49.726078 360.136780,42.737602 
	C359.146057,42.403057 358.845245,42.211006 358.545837,42.213184 
	C317.400604,42.512939 276.250946,42.568329 235.112778,43.283157 
	C221.092743,43.526775 207.175552,45.989292 195.204865,54.170486 
	C177.746185,66.102371 169.245010,92.651840 191.694641,109.759941 
	C196.246567,113.228798 201.653091,115.845993 207.027374,117.917244 
	C225.930573,125.202568 245.810425,128.312119 265.792755,130.870712 
	C274.868652,132.032806 280.858917,138.301865 280.994751,146.529663 
	C281.133759,154.950851 275.153137,162.975128 266.562225,163.568893 
	C254.505737,164.402176 242.246384,164.923767 230.277237,163.656860 
	C218.372589,162.396759 207.959183,156.804184 202.549118,145.063507 
	C201.367844,142.499985 200.148743,141.736267 197.432739,141.762009 
	C182.602570,141.902588 167.768265,141.705139 152.940948,141.954239 
	C150.589874,141.993744 147.925247,143.266220 145.998703,144.742584 
	C141.253372,148.379089 137.074173,152.764130 132.276093,156.320312 
	C110.864059,172.190262 77.351570,168.084015 60.401382,147.576019 
	C54.407661,140.324249 50.437538,132.132874 49.561348,121.958435 
	C90.900192,121.958435 131.629395,121.958435 172.366364,121.958435 
	C171.292816,81.790192 146.099106,45.332081 100.822304,42.426022 
	C67.382370,40.279701 35.194798,54.464062 22.370020,91.119698 
	C8.725432,130.118484 26.937349,170.385117 65.362724,183.593201 
	C96.738045,194.377960 127.359734,191.486938 154.587860,171.539230 
	C162.946976,165.415207 170.932922,163.042450 180.604080,164.041367 
	C182.010040,164.186600 183.742569,164.320389 184.703049,165.165314 
	C205.932068,183.840195 231.006622,190.432709 258.694244,189.007309 
	C275.943756,188.119263 291.775116,183.344284 304.959991,171.724869 
	C322.384338,156.369263 325.435974,122.409241 295.032196,110.036263 
	C292.266449,108.910721 289.519623,107.523399 286.627258,106.960556 
	C272.287659,104.170197 257.879150,101.733696 243.541336,98.934731 
	C234.767151,97.221878 225.976532,95.432610 217.388275,92.991615 
	C212.667465,91.649841 209.516296,87.812798 209.298660,82.609924 
	C209.082291,77.437584 212.022079,74.039146 216.368546,71.451027 
	C234.375412,60.728752 261.247406,64.030914 276.042633,78.897255 
	C278.075867,80.940239 280.166138,82.926491 282.979553,85.669914 
	C282.979553,78.191605 282.979553,71.675804 282.979553,65.258972 
	C300.126038,65.258972 316.735046,65.258972 333.503784,65.258972 
	C333.503784,121.505043 333.503784,177.494812 333.503754,234.478622 
M646.494751,42.835434 
	C627.425903,42.835434 608.357117,42.835434 589.308105,42.835434 
	C589.308105,50.971905 589.308105,58.204716 589.308105,66.141129 
	C595.057556,66.141129 600.435730,66.141129 606.080566,66.141129 
	C606.080566,68.679482 606.080505,70.501907 606.080566,72.324341 
	C606.081909,93.315514 606.084229,114.306694 606.084351,135.297867 
	C606.084473,151.624329 606.024414,167.951324 606.170105,184.276459 
	C606.184570,185.894577 607.405029,188.882935 608.137085,188.905334 
	C618.217529,189.214020 628.310486,189.113724 638.986084,189.113724 
	C638.986084,147.530014 638.986084,106.645195 638.986084,65.180046 
	C645.356445,65.180046 651.158813,65.439186 656.925415,65.097092 
	C661.443237,64.829086 662.984497,66.180870 662.938110,70.923882 
	C662.708618,94.411736 662.831299,117.903099 662.844543,141.393219 
	C662.848328,148.171677 662.518250,154.978226 663.013245,161.722565 
	C663.981873,174.920380 672.733215,186.271881 685.850708,187.804337 
	C700.755249,189.545593 715.969238,188.640259 731.049316,188.852356 
	C731.286865,188.855698 731.530518,188.435547 731.673096,188.303833 
	C731.673096,179.304626 731.673096,170.404633 731.673096,161.053024 
	C722.968750,161.053024 714.666382,161.131287 706.366333,161.027405 
	C700.117371,160.949203 699.006409,159.765015 699.004578,153.769440 
	C698.996094,126.447609 698.994751,99.125778 699.010925,71.803955 
	C699.011963,70.051857 699.182556,68.299858 699.302673,66.004150 
	C710.415161,66.004150 720.991150,66.004150 731.772034,66.004150 
	C731.772034,57.853695 731.772034,50.285530 731.772034,41.934013 
	C720.463928,41.934013 709.438904,41.934013 697.845215,41.934013 
	C697.845215,30.592800 697.845215,20.026690 697.845215,9.388658 
	C685.988464,9.388658 674.738525,9.388658 662.840515,9.388658 
	C662.840515,15.623727 662.920715,21.569635 662.815308,27.512257 
	C662.730408,32.300003 664.230347,39.063007 661.732971,41.345684 
	C658.899414,43.935638 652.398438,42.513157 646.494751,42.835434 
M743.157898,46.499977 
	C743.157898,56.570610 743.157898,66.641243 743.157898,77.393410 
	C773.751282,67.286339 803.507019,57.455997 833.262756,47.625652 
	C833.183594,47.203510 833.104431,46.781368 833.025330,46.359226 
	C803.342773,35.796280 773.660278,25.233330 743.157959,14.378628 
	C743.157959,25.320860 743.157959,35.410416 743.157898,46.499977 
M623.481323,9.077793 
	C617.870850,9.077793 612.260437,9.077793 606.367065,9.077793 
	C606.367065,18.596197 606.367065,27.489946 606.367065,36.613544 
	C616.021790,36.613544 625.387329,36.613544 634.767822,36.613544 
	C634.767822,27.330900 634.767822,18.444145 634.767822,9.077949 
	C631.072266,9.077949 627.772522,9.077949 623.481323,9.077793 
M399.502869,229.965363 
	C396.463043,229.116821 393.269714,228.598114 390.446442,227.284256 
	C388.976898,226.600388 387.159790,224.390823 387.319122,223.093948 
	C387.491547,221.690445 389.617493,219.772079 391.182129,219.437439 
	C395.699554,218.471268 399.383575,219.887711 400.467041,224.838303 
	C402.610901,224.838303 404.414551,224.838303 406.198273,224.838303 
	C407.055023,216.300644 396.187653,211.699066 387.403687,214.995865 
	C383.096649,216.612381 380.659882,219.596466 380.785828,224.458694 
	C380.910645,229.277847 383.808960,231.617874 387.951172,232.865738 
	C391.128021,233.822769 394.505005,234.253525 397.519501,235.552811 
	C399.022675,236.200684 400.986481,238.416962 400.816986,239.661606 
	C400.589294,241.333435 398.796570,243.451340 397.153992,244.148407 
	C392.106354,246.290451 387.672668,243.732330 384.838074,237.430389 
	C383.195740,237.508926 381.449707,237.592422 379.692749,237.676437 
	C380.430145,247.183121 388.169647,251.874756 398.265320,249.404053 
	C403.971710,248.007553 406.872589,245.036102 407.269775,240.186203 
	C407.702667,234.900406 405.108093,231.712372 399.502869,229.965363 
M722.523560,224.278656 
	C722.523560,232.499725 722.523560,240.720795 722.523560,248.802048 
	C724.213867,248.802048 725.831787,248.802048 727.895020,248.802048 
	C727.895020,243.635406 727.804626,238.675461 727.927002,233.720779 
	C728.007751,230.454468 729.824341,228.223190 733.120850,228.154709 
	C736.730408,228.079712 737.161316,230.869278 737.144958,233.751846 
	C737.116821,238.708221 737.137207,243.664886 737.137207,248.768707 
	C739.307312,248.768707 741.025391,248.768707 743.044739,248.768707 
	C743.044739,243.383026 742.920105,238.241425 743.092102,233.109756 
	C743.193481,230.083710 744.856689,228.045731 748.112732,228.095230 
	C751.338501,228.144287 752.215332,230.248276 752.170349,233.149429 
	C752.089233,238.377625 752.147400,243.607956 752.147400,249.132339 
	C754.773132,248.967911 756.325562,248.870682 758.018921,248.764648 
	C758.018921,242.717712 758.092957,237.067184 757.998108,231.419495 
	C757.903992,225.815628 754.603271,222.808258 748.940125,223.593399 
	C746.513428,223.929825 744.244812,225.406723 742.924500,225.947556 
	C739.443848,225.018295 736.325439,223.104065 734.016785,223.815933 
	C730.297791,224.962723 726.941467,224.677521 722.523560,224.278656 
M511.132996,234.537277 
	C511.132996,239.310379 511.132996,244.083481 511.132996,248.856720 
	C513.381287,248.856720 514.999023,248.856720 517.038086,248.856720 
	C517.038086,243.737686 516.940979,238.772888 517.072693,233.814178 
	C517.158691,230.577957 518.921875,228.341080 522.230164,228.154892 
	C525.985046,227.943573 526.328430,230.920685 526.389526,233.654205 
	C526.500610,238.625122 526.421082,243.600266 526.421082,248.685562 
	C528.516541,248.685562 530.196350,248.685562 532.088257,248.685562 
	C532.088257,243.529160 531.959961,238.704178 532.132324,233.889969 
	C532.251648,230.554214 533.729187,227.926971 537.555664,228.104721 
	C541.193726,228.273758 541.438477,231.141800 541.452942,233.928192 
	C541.478638,238.877991 541.460144,243.828003 541.460144,248.818329 
	C543.619873,248.818329 545.224915,248.818329 547.121765,248.818329 
	C547.121765,242.493515 547.225159,236.364822 547.084412,230.241745 
	C546.994751,226.341888 544.722229,223.783508 540.871033,223.832443 
	C537.634949,223.873596 534.412720,225.001999 530.726440,225.740814 
	C529.205872,225.191544 526.602295,223.279099 524.395020,223.660522 
	C520.094788,224.403595 515.910706,225.308990 511.131714,223.842239 
	C511.131714,227.614410 511.131714,230.586868 511.132996,234.537277 
M618.005432,223.670807 
	C613.118835,224.151321 609.353149,225.908813 608.665405,233.183807 
	C611.603088,231.669968 613.576965,230.461060 615.696655,229.619736 
	C617.467285,228.916931 619.469299,228.139877 621.253601,228.354370 
	C622.494446,228.503525 623.540100,230.276810 624.672913,231.324493 
	C623.612671,232.207565 622.679321,233.528732 621.465149,233.880585 
	C619.090332,234.568771 616.527039,234.574478 614.099182,235.118805 
	C610.071594,236.021805 607.605957,238.305634 607.874878,242.808472 
	C608.177612,247.877411 612.918884,250.792938 618.989746,249.524857 
	C621.932007,248.910294 624.714111,246.687073 627.879272,249.538589 
	C628.625183,250.210587 631.020325,249.325302 632.491150,248.740112 
	C632.893005,248.580246 633.061584,246.219131 632.714050,246.033157 
	C627.641418,243.319366 630.309143,238.683960 630.157715,235.031693 
	C629.762695,225.501328 628.382751,223.809631 618.005432,223.670807 
M641.209778,235.461609 
	C641.209778,231.823395 641.209778,228.185181 641.209778,224.340164 
	C639.293701,224.340164 637.697205,224.340164 635.803650,224.340164 
	C635.803650,230.354904 635.648926,236.161118 635.849915,241.954987 
	C636.028992,247.117569 639.591309,250.685333 644.711304,249.658112 
	C648.934265,248.810898 653.001831,248.238983 657.227539,249.172638 
	C657.227539,240.511902 657.227539,232.457382 657.227539,224.359879 
	C655.287170,224.359879 653.687378,224.359879 651.968079,224.359879 
	C651.903259,225.744492 651.810791,226.896164 651.802551,228.048447 
	C651.775146,231.869568 651.917542,235.697800 651.728088,239.510056 
	C651.556946,242.953842 649.732971,245.032593 646.056519,245.095734 
	C642.494263,245.156876 641.659790,242.737183 641.336609,239.899841 
	C641.205566,238.749878 641.248291,237.580139 641.209778,235.461609 
M574.644287,238.058838 
	C576.162659,231.786026 572.851196,225.644302 567.058472,223.989716 
	C560.537231,222.127060 553.992493,225.687866 552.097595,232.129440 
	C549.873901,239.688675 553.031311,247.090698 559.345154,249.120392 
	C566.713013,251.488922 572.969238,248.243912 574.924316,239.774261 
	C572.131104,241.237503 570.263367,242.494690 568.207764,243.217072 
	C565.998657,243.993362 563.308411,245.161407 561.390808,244.507767 
	C559.498413,243.862686 558.309692,241.153107 556.812195,239.349228 
	C557.165833,238.965302 557.519470,238.581390 557.873169,238.197479 
	C563.180237,238.197479 568.487305,238.197479 574.644287,238.058838 
M695.386475,231.170395 
	C695.264343,234.612228 694.586365,238.147919 695.148071,241.474289 
	C696.030884,246.702576 700.945129,249.926331 706.641479,249.862961 
	C712.537659,249.797379 716.157898,246.913651 717.813477,239.709534 
	C714.991577,241.256165 713.171143,242.565643 711.141418,243.282333 
	C708.926025,244.064575 706.210693,245.184952 704.279236,244.518280 
	C702.387573,243.865326 701.208191,241.148666 699.716187,239.337799 
	C700.069092,238.917526 700.421936,238.497269 700.774780,238.076996 
	C706.532898,238.076996 712.291016,238.076996 718.022217,238.076996 
	C718.236572,230.339828 715.302246,225.481964 709.784302,223.964767 
	C703.809204,222.321884 699.419373,224.366180 695.386475,231.170395 
M785.614441,242.073074 
	C783.622070,242.215302 781.583984,242.142136 779.648621,242.553024 
	C777.093689,243.095459 774.404724,244.977875 772.176697,244.479828 
	C770.312500,244.063110 769.027771,241.054245 767.486450,239.193222 
	C767.800232,238.782806 768.114014,238.372391 768.427795,237.961975 
	C774.317627,237.961975 780.207458,237.961975 786.069763,237.961975 
	C786.087646,229.249023 782.412109,224.380203 775.584595,223.595978 
	C769.419189,222.887802 764.457214,226.512955 762.796448,232.938873 
	C761.012085,239.843231 763.907471,246.766998 769.487000,248.938004 
	C775.837341,251.408920 782.082031,248.976807 785.614441,242.073074 
M424.890198,249.616226 
	C429.460815,248.610092 432.766693,246.275940 433.915710,240.090118 
	C431.333405,241.163849 429.483398,242.089615 427.535187,242.703918 
	C425.044128,243.489426 422.247681,244.935059 420.009125,244.379242 
	C418.205231,243.931351 417.034119,240.934677 414.763184,238.016205 
	C422.390930,238.016205 428.171692,238.016205 433.928253,238.016205 
	C434.413727,228.599945 428.919189,222.646881 420.951569,223.633316 
	C414.292145,224.457779 409.917175,230.197876 410.325378,237.575226 
	C410.778564,245.765503 415.281250,249.755936 424.890198,249.616226 
M483.734680,248.551727 
	C484.290894,248.192841 484.888794,247.884705 485.396881,247.467224 
	C490.226471,243.498917 491.753540,235.598236 488.827545,229.821945 
	C486.191071,224.617188 479.605530,222.177429 473.364685,224.093369 
	C467.671051,225.841309 464.521851,231.296646 465.144379,238.333282 
	C465.935883,247.279938 472.942017,251.413620 483.734680,248.551727 
M801.892822,223.652893 
	C798.225342,226.329956 794.081665,224.020737 790.299683,224.214188 
	C790.299683,232.832870 790.299683,240.895325 790.299683,249.079056 
	C792.255615,248.992966 793.870117,248.921890 795.875793,248.833603 
	C795.875793,243.772675 795.834717,238.980286 795.888855,234.188965 
	C795.931763,230.395737 798.025330,228.166870 801.712158,228.139206 
	C805.484558,228.110901 806.110779,231.028397 806.120361,234.091843 
	C806.135742,239.016342 806.124451,243.940933 806.124451,249.095215 
	C808.393433,248.979919 809.984863,248.899063 811.458374,248.824203 
	C811.658569,248.153549 811.828552,247.846802 811.830261,247.539139 
	C811.855835,242.879257 811.874817,238.219223 811.864563,233.559296 
	C811.848389,226.181015 810.211853,224.405167 801.892822,223.652893 
M675.174438,245.787781 
	C665.821594,242.410110 672.151611,234.742828 669.949280,229.176544 
	C672.836365,228.326263 677.028198,229.103607 674.649475,224.341949 
	C673.248413,224.150848 671.813477,223.955139 670.137329,223.726517 
	C670.137329,221.453369 670.137329,219.332336 670.137329,217.061462 
	C668.143860,217.061462 666.419189,217.061462 664.384583,217.061462 
	C664.384583,219.436005 664.384583,221.529770 664.384583,222.710281 
	C662.652222,224.165878 661.382996,224.962997 660.555176,226.085632 
	C660.293823,226.440170 661.202148,228.376389 661.594666,228.382782 
	C665.612061,228.448135 664.259705,231.406418 664.389221,233.434448 
	C664.642639,237.399139 664.218628,241.496460 665.124207,245.288300 
	C665.512695,246.915268 668.372803,248.507980 670.386414,249.012314 
	C671.955078,249.405197 675.473816,250.869141 675.174438,245.787781 
M459.469330,220.015442 
	C461.667816,219.127472 465.800049,219.772095 463.310638,215.168701 
	C454.891907,214.189865 453.488220,215.324051 452.744781,222.829041 
	C451.071991,224.266205 449.934845,225.243195 448.797668,226.220184 
	C449.968323,227.395126 451.138947,228.570053 453.205444,230.644119 
	C453.205444,235.829468 453.205444,242.401276 453.205444,249.145065 
	C455.197266,248.987045 456.770782,248.862213 458.676788,248.710999 
	C458.676788,241.906647 458.676788,235.468353 458.676788,228.871994 
	C461.831696,228.716873 464.649384,228.418701 462.621033,224.232605 
	C460.675629,223.943130 457.415771,224.776871 459.469330,220.015442 
M817.815308,228.644882 
	C818.199829,232.428329 818.845886,236.206909 818.916382,239.996201 
	C819.081787,248.888214 820.398438,250.107635 830.973755,248.450897 
	C828.666748,246.264267 827.161438,244.837494 825.066895,242.852203 
	C825.066895,238.903183 825.066895,233.963562 825.066895,230.119583 
	C826.993591,228.465393 828.278687,227.362045 829.563843,226.258743 
	C828.070801,225.185623 826.577820,224.112503 824.728271,222.783112 
	C824.728271,221.256790 824.728271,219.300308 824.728271,217.067719 
	C822.789429,217.067719 821.070496,217.067719 819.042236,217.067719 
	C819.042236,219.318390 819.042236,221.435791 819.042236,222.905273 
	C817.291870,224.201736 816.050171,225.121475 814.808411,226.041214 
	C815.509949,226.890808 816.211487,227.740402 817.815308,228.644882 
M690.729919,223.586639 
	C688.786255,224.385422 686.842590,225.184189 685.768311,225.625687 
	C683.207275,224.942139 681.223938,224.412781 678.902100,223.793091 
	C678.902100,232.748306 678.902100,240.702301 678.902100,248.761627 
	C680.764832,248.761627 682.503906,248.761627 683.941467,248.761627 
	C686.691528,241.583984 679.581726,230.356216 694.438110,228.363129 
	C693.309143,226.506866 692.389587,224.994827 690.729919,223.586639 
M494.865143,224.492981 
	C494.865143,232.555954 494.865143,240.618927 494.865143,248.833710 
	C495.610901,248.899017 496.421234,249.037048 497.228943,249.023193 
	C498.169891,249.007034 499.108612,248.857986 500.007660,248.770569 
	C501.182129,229.779312 501.182129,229.779312 509.000488,228.628403 
	C509.000488,227.023560 509.000488,225.420807 509.000488,222.671631 
	C505.674713,224.029892 502.933197,225.149521 501.197052,225.858566 
	C498.922333,225.160431 497.276581,224.655334 494.865143,224.492981 
M579.113647,237.490036 
	C579.113647,241.261337 579.113647,245.032639 579.113647,248.812225 
	C581.270935,248.812225 582.870850,248.812225 584.344971,248.812225 
	C586.941101,241.518097 579.773926,230.024719 593.960815,228.451706 
	C593.867432,226.799088 593.785950,225.357254 593.645142,222.866089 
	C590.423279,224.010178 587.772278,224.951538 586.132690,225.533752 
	C583.593811,224.854080 581.683350,224.342636 579.114014,223.654800 
	C579.114014,228.589737 579.114014,232.547089 579.113647,237.490036 
z"/>
<path fill="#020202" opacity="1.000000" stroke="none" 
	d="
M333.503784,233.981598 
	C333.503784,177.494812 333.503784,121.505043 333.503784,65.258972 
	C316.735046,65.258972 300.126038,65.258972 282.979553,65.258972 
	C282.979553,71.675804 282.979553,78.191605 282.979553,85.669914 
	C280.166138,82.926491 278.075867,80.940239 276.042633,78.897255 
	C261.247406,64.030914 234.375412,60.728752 216.368546,71.451027 
	C212.022079,74.039146 209.082291,77.437584 209.298660,82.609924 
	C209.516296,87.812798 212.667465,91.649841 217.388275,92.991615 
	C225.976532,95.432610 234.767151,97.221878 243.541336,98.934731 
	C257.879150,101.733696 272.287659,104.170197 286.627258,106.960556 
	C289.519623,107.523399 292.266449,108.910721 295.032196,110.036263 
	C325.435974,122.409241 322.384338,156.369263 304.959991,171.724869 
	C291.775116,183.344284 275.943756,188.119263 258.694244,189.007309 
	C231.006622,190.432709 205.932068,183.840195 184.703049,165.165314 
	C183.742569,164.320389 182.010040,164.186600 180.604080,164.041367 
	C170.932922,163.042450 162.946976,165.415207 154.587860,171.539230 
	C127.359734,191.486938 96.738045,194.377960 65.362724,183.593201 
	C26.937349,170.385117 8.725432,130.118484 22.370020,91.119698 
	C35.194798,54.464062 67.382370,40.279701 100.822304,42.426022 
	C146.099106,45.332081 171.292816,81.790192 172.366364,121.958435 
	C131.629395,121.958435 90.900192,121.958435 49.561348,121.958435 
	C50.437538,132.132874 54.407661,140.324249 60.401382,147.576019 
	C77.351570,168.084015 110.864059,172.190262 132.276093,156.320312 
	C137.074173,152.764130 141.253372,148.379089 145.998703,144.742584 
	C147.925247,143.266220 150.589874,141.993744 152.940948,141.954239 
	C167.768265,141.705139 182.602570,141.902588 197.432739,141.762009 
	C200.148743,141.736267 201.367844,142.499985 202.549118,145.063507 
	C207.959183,156.804184 218.372589,162.396759 230.277237,163.656860 
	C242.246384,164.923767 254.505737,164.402176 266.562225,163.568893 
	C275.153137,162.975128 281.133759,154.950851 280.994751,146.529663 
	C280.858917,138.301865 274.868652,132.032806 265.792755,130.870712 
	C245.810425,128.312119 225.930573,125.202568 207.027374,117.917244 
	C201.653091,115.845993 196.246567,113.228798 191.694641,109.759941 
	C169.245010,92.651840 177.746185,66.102371 195.204865,54.170486 
	C207.175552,45.989292 221.092743,43.526775 235.112778,43.283157 
	C276.250946,42.568329 317.400604,42.512939 358.545837,42.213184 
	C358.845245,42.211006 359.146057,42.403057 360.136780,42.737602 
	C360.136780,49.726078 360.136780,56.954632 360.136780,65.728271 
	C362.413391,63.724346 363.594940,62.799519 364.644165,61.743256 
	C377.638702,48.661579 393.606140,42.382458 411.782562,42.244556 
	C447.931885,41.970303 484.084747,42.163403 521.048889,42.163403 
	C521.048889,52.508381 521.048889,62.719822 521.048889,72.931259 
	C521.531616,73.375343 522.014343,73.819427 522.497009,74.263519 
	C535.660645,46.673485 558.096924,38.649750 586.492920,42.866577 
	C586.492920,49.864647 586.492920,57.283596 586.492920,65.503967 
	C580.906128,65.503967 575.127808,65.841316 569.400208,65.445488 
	C544.772522,63.743496 532.452332,81.733528 529.987732,99.431931 
	C528.934753,106.993439 528.332886,114.671432 528.250916,122.304291 
	C528.016663,144.132446 528.154724,165.964584 528.135742,187.795151 
	C528.135437,188.117157 527.998413,188.439041 527.838440,189.142151 
	C518.734863,189.142151 509.542908,189.142151 499.947693,189.142151 
	C499.947693,147.928970 499.947693,106.824890 499.947693,65.677917 
	C488.605438,65.677917 477.662628,65.677917 465.724792,65.677917 
	C467.256470,67.954056 468.473541,69.613098 469.536957,71.365372 
	C486.776184,99.771065 486.993988,128.970001 471.321503,157.629639 
	C460.208405,177.951813 440.377991,186.301117 418.321777,188.799835 
	C396.743744,191.244370 377.378052,185.695679 361.319519,168.659805 
	C361.319519,195.435272 361.319519,221.402985 361.319519,247.600998 
	C351.931671,247.600998 343.153015,247.600998 333.503754,247.600998 
	C333.503754,243.280029 333.503754,238.879318 333.503784,233.981598 
M361.667755,127.622208 
	C368.512634,155.615341 395.327057,171.440796 421.445404,162.902008 
	C444.009216,155.525299 457.339844,131.561096 452.981201,106.210732 
	C447.428223,73.913803 411.143066,57.178608 383.368347,74.051102 
	C368.743958,82.935074 356.550781,102.945694 361.667755,127.622208 
M128.680878,77.819107 
	C113.866241,63.662910 96.454857,61.146790 77.868576,67.879440 
	C62.065945,73.603752 54.477531,86.467445 51.292328,102.662201 
	C81.832481,102.662201 111.912720,102.662201 142.577240,102.662201 
	C140.156158,93.123840 135.556915,85.251167 128.680878,77.819107 
z"/>
<path fill="#B3B4B8" opacity="1.000000" stroke="none" 
	d="
M646.993286,42.835258 
	C652.398438,42.513157 658.899414,43.935638 661.732971,41.345684 
	C664.230347,39.063007 662.730408,32.300003 662.815308,27.512257 
	C662.920715,21.569635 662.840515,15.623727 662.840515,9.388658 
	C674.738525,9.388658 685.988464,9.388658 697.845215,9.388658 
	C697.845215,20.026690 697.845215,30.592800 697.845215,41.934013 
	C709.438904,41.934013 720.463928,41.934013 731.772034,41.934013 
	C731.772034,50.285530 731.772034,57.853695 731.772034,66.004150 
	C720.991150,66.004150 710.415161,66.004150 699.302673,66.004150 
	C699.182556,68.299858 699.011963,70.051857 699.010925,71.803955 
	C698.994751,99.125778 698.996094,126.447609 699.004578,153.769440 
	C699.006409,159.765015 700.117371,160.949203 706.366333,161.027405 
	C714.666382,161.131287 722.968750,161.053024 731.673096,161.053024 
	C731.673096,170.404633 731.673096,179.304626 731.673096,188.303833 
	C731.530518,188.435547 731.286865,188.855698 731.049316,188.852356 
	C715.969238,188.640259 700.755249,189.545593 685.850708,187.804337 
	C672.733215,186.271881 663.981873,174.920380 663.013245,161.722565 
	C662.518250,154.978226 662.848328,148.171677 662.844543,141.393219 
	C662.831299,117.903099 662.708618,94.411736 662.938110,70.923882 
	C662.984497,66.180870 661.443237,64.829086 656.925415,65.097092 
	C651.158813,65.439186 645.356445,65.180046 638.986084,65.180046 
	C638.986084,106.645195 638.986084,147.530014 638.986084,189.113724 
	C628.310486,189.113724 618.217529,189.214020 608.137085,188.905334 
	C607.405029,188.882935 606.184570,185.894577 606.170105,184.276459 
	C606.024414,167.951324 606.084473,151.624329 606.084351,135.297867 
	C606.084229,114.306694 606.081909,93.315514 606.080566,72.324341 
	C606.080505,70.501907 606.080566,68.679482 606.080566,66.141129 
	C600.435730,66.141129 595.057556,66.141129 589.308105,66.141129 
	C589.308105,58.204716 589.308105,50.971905 589.308105,42.835434 
	C608.357117,42.835434 627.425903,42.835434 646.993286,42.835258 
z"/>
<path fill="#ED393A" opacity="1.000000" stroke="none" 
	d="
M743.157959,45.999977 
	C743.157959,35.410416 743.157959,25.320860 743.157959,14.378628 
	C773.660278,25.233330 803.342773,35.796280 833.025330,46.359226 
	C833.104431,46.781368 833.183594,47.203510 833.262756,47.625652 
	C803.507019,57.455997 773.751282,67.286339 743.157898,77.393410 
	C743.157898,66.641243 743.157898,56.570610 743.157959,45.999977 
z"/>
<path fill="#B4B4B8" opacity="1.000000" stroke="none" 
	d="
M623.977051,9.077871 
	C627.772522,9.077949 631.072266,9.077949 634.767822,9.077949 
	C634.767822,18.444145 634.767822,27.330900 634.767822,36.613544 
	C625.387329,36.613544 616.021790,36.613544 606.367065,36.613544 
	C606.367065,27.489946 606.367065,18.596197 606.367065,9.077793 
	C612.260437,9.077793 617.870850,9.077793 623.977051,9.077871 
z"/>
<path fill="#0C0C0C" opacity="1.000000" stroke="none" 
	d="
M399.887207,230.020096 
	C405.108093,231.712372 407.702667,234.900406 407.269775,240.186203 
	C406.872589,245.036102 403.971710,248.007553 398.265320,249.404053 
	C388.169647,251.874756 380.430145,247.183121 379.692749,237.676437 
	C381.449707,237.592422 383.195740,237.508926 384.838074,237.430389 
	C387.672668,243.732330 392.106354,246.290451 397.153992,244.148407 
	C398.796570,243.451340 400.589294,241.333435 400.816986,239.661606 
	C400.986481,238.416962 399.022675,236.200684 397.519501,235.552811 
	C394.505005,234.253525 391.128021,233.822769 387.951172,232.865738 
	C383.808960,231.617874 380.910645,229.277847 380.785828,224.458694 
	C380.659882,219.596466 383.096649,216.612381 387.403687,214.995865 
	C396.187653,211.699066 407.055023,216.300644 406.198273,224.838303 
	C404.414551,224.838303 402.610901,224.838303 400.467041,224.838303 
	C399.383575,219.887711 395.699554,218.471268 391.182129,219.437439 
	C389.617493,219.772079 387.491547,221.690445 387.319122,223.093948 
	C387.159790,224.390823 388.976898,226.600388 390.446442,227.284256 
	C393.269714,228.598114 396.463043,229.116821 399.887207,230.020096 
z"/>
<path fill="#0D0D0D" opacity="1.000000" stroke="none" 
	d="
M722.953918,224.198853 
	C726.941467,224.677521 730.297791,224.962723 734.016785,223.815933 
	C736.325439,223.104065 739.443848,225.018295 742.924500,225.947556 
	C744.244812,225.406723 746.513428,223.929825 748.940125,223.593399 
	C754.603271,222.808258 757.903992,225.815628 757.998108,231.419495 
	C758.092957,237.067184 758.018921,242.717712 758.018921,248.764648 
	C756.325562,248.870682 754.773132,248.967911 752.147400,249.132339 
	C752.147400,243.607956 752.089233,238.377625 752.170349,233.149429 
	C752.215332,230.248276 751.338501,228.144287 748.112732,228.095230 
	C744.856689,228.045731 743.193481,230.083710 743.092102,233.109756 
	C742.920105,238.241425 743.044739,243.383026 743.044739,248.768707 
	C741.025391,248.768707 739.307312,248.768707 737.137207,248.768707 
	C737.137207,243.664886 737.116821,238.708221 737.144958,233.751846 
	C737.161316,230.869278 736.730408,228.079712 733.120850,228.154709 
	C729.824341,228.223190 728.007751,230.454468 727.927002,233.720779 
	C727.804626,238.675461 727.895020,243.635406 727.895020,248.802048 
	C725.831787,248.802048 724.213867,248.802048 722.523560,248.802048 
	C722.523560,240.720795 722.523560,232.499725 722.953918,224.198853 
z"/>
<path fill="#0E0E0E" opacity="1.000000" stroke="none" 
	d="
M511.132355,234.048309 
	C511.131714,230.586868 511.131714,227.614410 511.131714,223.842239 
	C515.910706,225.308990 520.094788,224.403595 524.395020,223.660522 
	C526.602295,223.279099 529.205872,225.191544 530.726440,225.740814 
	C534.412720,225.001999 537.634949,223.873596 540.871033,223.832443 
	C544.722229,223.783508 546.994751,226.341888 547.084412,230.241745 
	C547.225159,236.364822 547.121765,242.493515 547.121765,248.818329 
	C545.224915,248.818329 543.619873,248.818329 541.460144,248.818329 
	C541.460144,243.828003 541.478638,238.877991 541.452942,233.928192 
	C541.438477,231.141800 541.193726,228.273758 537.555664,228.104721 
	C533.729187,227.926971 532.251648,230.554214 532.132324,233.889969 
	C531.959961,238.704178 532.088257,243.529160 532.088257,248.685562 
	C530.196350,248.685562 528.516541,248.685562 526.421082,248.685562 
	C526.421082,243.600266 526.500610,238.625122 526.389526,233.654205 
	C526.328430,230.920685 525.985046,227.943573 522.230164,228.154892 
	C518.921875,228.341080 517.158691,230.577957 517.072693,233.814178 
	C516.940979,238.772888 517.038086,243.737686 517.038086,248.856720 
	C514.999023,248.856720 513.381287,248.856720 511.132996,248.856720 
	C511.132996,244.083481 511.132996,239.310379 511.132355,234.048309 
z"/>
<path fill="#0E0E0E" opacity="1.000000" stroke="none" 
	d="
M618.397461,223.597351 
	C628.382751,223.809631 629.762695,225.501328 630.157715,235.031693 
	C630.309143,238.683960 627.641418,243.319366 632.714050,246.033157 
	C633.061584,246.219131 632.893005,248.580246 632.491150,248.740112 
	C631.020325,249.325302 628.625183,250.210587 627.879272,249.538589 
	C624.714111,246.687073 621.932007,248.910294 618.989746,249.524857 
	C612.918884,250.792938 608.177612,247.877411 607.874878,242.808472 
	C607.605957,238.305634 610.071594,236.021805 614.099182,235.118805 
	C616.527039,234.574478 619.090332,234.568771 621.465149,233.880585 
	C622.679321,233.528732 623.612671,232.207565 624.672913,231.324509 
	C623.540100,230.276810 622.494446,228.503525 621.253601,228.354370 
	C619.469299,228.139877 617.467285,228.916931 615.696655,229.619736 
	C613.576965,230.461060 611.603088,231.669968 608.665405,233.183807 
	C609.353149,225.908813 613.118835,224.151321 618.397461,223.597351 
M615.637573,238.997925 
	C615.133057,240.485886 614.628479,241.973862 614.123962,243.461838 
	C616.540039,243.820587 619.409912,245.134842 621.242432,244.264679 
	C623.012878,243.423950 623.714111,240.331802 625.538696,237.054626 
	C621.218262,237.816467 618.832153,238.237198 615.637573,238.997925 
z"/>
<path fill="#101010" opacity="1.000000" stroke="none" 
	d="
M641.210876,235.940491 
	C641.248291,237.580139 641.205566,238.749878 641.336609,239.899841 
	C641.659790,242.737183 642.494263,245.156876 646.056519,245.095734 
	C649.732971,245.032593 651.556946,242.953842 651.728088,239.510056 
	C651.917542,235.697800 651.775146,231.869568 651.802551,228.048447 
	C651.810791,226.896164 651.903259,225.744492 651.968079,224.359879 
	C653.687378,224.359879 655.287170,224.359879 657.227539,224.359879 
	C657.227539,232.457382 657.227539,240.511902 657.227539,249.172638 
	C653.001831,248.238983 648.934265,248.810898 644.711304,249.658112 
	C639.591309,250.685333 636.028992,247.117569 635.849915,241.954987 
	C635.648926,236.161118 635.803650,230.354904 635.803650,224.340164 
	C637.697205,224.340164 639.293701,224.340164 641.209778,224.340164 
	C641.209778,228.185181 641.209778,231.823395 641.210876,235.940491 
z"/>
<path fill="#0D0D0D" opacity="1.000000" stroke="none" 
	d="
M574.219360,238.128159 
	C568.487305,238.197479 563.180237,238.197479 557.873169,238.197479 
	C557.519470,238.581390 557.165833,238.965302 556.812195,239.349228 
	C558.309692,241.153107 559.498413,243.862686 561.390808,244.507767 
	C563.308411,245.161407 565.998657,243.993362 568.207764,243.217072 
	C570.263367,242.494690 572.131104,241.237503 574.924316,239.774261 
	C572.969238,248.243912 566.713013,251.488922 559.345154,249.120392 
	C553.031311,247.090698 549.873901,239.688675 552.097595,232.129440 
	C553.992493,225.687866 560.537231,222.127060 567.058472,223.989716 
	C572.851196,225.644302 576.162659,231.786026 574.219360,238.128159 
M557.757324,232.232193 
	C558.173157,232.868881 558.564331,234.036942 559.008728,234.057587 
	C562.353149,234.212860 565.708130,234.142227 569.243103,234.142227 
	C567.009827,226.976578 563.008911,226.233170 557.757324,232.232193 
z"/>
<path fill="#0D0D0D" opacity="1.000000" stroke="none" 
	d="
M695.574951,230.832275 
	C699.419373,224.366180 703.809204,222.321884 709.784302,223.964767 
	C715.302246,225.481964 718.236572,230.339828 718.022217,238.076996 
	C712.291016,238.076996 706.532898,238.076996 700.774780,238.076996 
	C700.421936,238.497269 700.069092,238.917526 699.716187,239.337799 
	C701.208191,241.148666 702.387573,243.865326 704.279236,244.518280 
	C706.210693,245.184952 708.926025,244.064575 711.141418,243.282333 
	C713.171143,242.565643 714.991577,241.256165 717.813477,239.709534 
	C716.157898,246.913651 712.537659,249.797379 706.641479,249.862961 
	C700.945129,249.926331 696.030884,246.702576 695.148071,241.474289 
	C694.586365,238.147919 695.264343,234.612228 695.574951,230.832275 
M709.259094,234.156052 
	C711.565247,234.343643 713.334900,233.579437 711.385376,231.286850 
	C710.061584,229.730164 707.392883,228.025925 705.729980,228.365829 
	C703.499634,228.821732 701.659790,231.187988 699.652283,232.734085 
	C699.932922,233.215103 700.213562,233.696106 700.494263,234.177124 
	C703.114502,234.177124 705.734802,234.177124 709.259094,234.156052 
z"/>
<path fill="#0D0D0D" opacity="1.000000" stroke="none" 
	d="
M785.472290,242.420288 
	C782.082031,248.976807 775.837341,251.408920 769.487000,248.938004 
	C763.907471,246.766998 761.012085,239.843231 762.796448,232.938873 
	C764.457214,226.512955 769.419189,222.887802 775.584595,223.595978 
	C782.412109,224.380203 786.087646,229.249023 786.069763,237.961975 
	C780.207458,237.961975 774.317627,237.961975 768.427795,237.961975 
	C768.114014,238.372391 767.800232,238.782806 767.486450,239.193222 
	C769.027771,241.054245 770.312500,244.063110 772.176697,244.479828 
	C774.404724,244.977875 777.093689,243.095459 779.648621,242.553024 
	C781.583984,242.142136 783.622070,242.215302 785.472290,242.420288 
M771.837463,234.170792 
	C774.532959,234.170792 777.228394,234.170792 779.923889,234.170792 
	C780.199341,233.550339 780.474792,232.929886 780.750305,232.309418 
	C778.563660,230.886871 776.480591,228.522400 774.165588,228.267929 
	C770.895386,227.908478 768.564453,230.178635 768.276428,234.021698 
	C769.333862,234.080215 770.145447,234.125137 771.837463,234.170792 
z"/>
<path fill="#0D0D0D" opacity="1.000000" stroke="none" 
	d="
M424.494995,249.699341 
	C415.281250,249.755936 410.778564,245.765503 410.325378,237.575226 
	C409.917175,230.197876 414.292145,224.457779 420.951569,223.633316 
	C428.919189,222.646881 434.413727,228.599945 433.928253,238.016205 
	C428.171692,238.016205 422.390930,238.016205 414.763184,238.016205 
	C417.034119,240.934677 418.205231,243.931351 420.009125,244.379242 
	C422.247681,244.935059 425.044128,243.489426 427.535187,242.703918 
	C429.483398,242.089615 431.333405,241.163849 433.915710,240.090118 
	C432.766693,246.275940 429.460815,248.610092 424.494995,249.699341 
M416.264587,233.072906 
	C420.094788,233.585144 423.925018,234.097397 427.755219,234.609634 
	C428.080780,234.028839 428.406342,233.448044 428.731903,232.867249 
	C426.995422,231.304596 425.499115,229.024277 423.467224,228.344254 
	C420.264008,227.272217 417.853485,229.218155 416.264587,233.072906 
z"/>
<path fill="#0D0D0D" opacity="1.000000" stroke="none" 
	d="
M483.376892,248.715637 
	C472.942017,251.413620 465.935883,247.279938 465.144379,238.333282 
	C464.521851,231.296646 467.671051,225.841309 473.364685,224.093369 
	C479.605530,222.177429 486.191071,224.617188 488.827545,229.821945 
	C491.753540,235.598236 490.226471,243.498917 485.396881,247.467224 
	C484.888794,247.884705 484.290894,248.192841 483.376892,248.715637 
M471.197662,239.814880 
	C473.326508,241.584076 475.228943,244.087128 477.671143,244.840637 
	C479.081970,245.275894 482.064453,243.332001 483.109283,241.680542 
	C485.371429,238.105118 485.384949,233.784668 482.440430,230.657867 
	C480.997253,229.125336 477.622162,228.184708 475.568024,228.712891 
	C471.416443,229.780441 470.770172,233.666794 470.919037,237.527908 
	C470.938141,238.022308 471.011963,238.514618 471.197662,239.814880 
z"/>
<path fill="#0F0F0F" opacity="1.000000" stroke="none" 
	d="
M802.269592,223.572784 
	C810.211853,224.405167 811.848389,226.181015 811.864563,233.559296 
	C811.874817,238.219223 811.855835,242.879257 811.830261,247.539139 
	C811.828552,247.846802 811.658569,248.153549 811.458374,248.824203 
	C809.984863,248.899063 808.393433,248.979919 806.124451,249.095215 
	C806.124451,243.940933 806.135742,239.016342 806.120361,234.091843 
	C806.110779,231.028397 805.484558,228.110901 801.712158,228.139206 
	C798.025330,228.166870 795.931763,230.395737 795.888855,234.188965 
	C795.834717,238.980286 795.875793,243.772675 795.875793,248.833603 
	C793.870117,248.921890 792.255615,248.992966 790.299683,249.079056 
	C790.299683,240.895325 790.299683,232.832870 790.299683,224.214188 
	C794.081665,224.020737 798.225342,226.329956 802.269592,223.572784 
z"/>
<path fill="#141414" opacity="1.000000" stroke="none" 
	d="
M675.192261,246.160889 
	C675.473816,250.869141 671.955078,249.405197 670.386414,249.012314 
	C668.372803,248.507980 665.512695,246.915268 665.124207,245.288300 
	C664.218628,241.496460 664.642639,237.399139 664.389221,233.434448 
	C664.259705,231.406418 665.612061,228.448135 661.594666,228.382782 
	C661.202148,228.376389 660.293823,226.440170 660.555176,226.085632 
	C661.382996,224.962997 662.652222,224.165878 664.384583,222.710281 
	C664.384583,221.529770 664.384583,219.436005 664.384583,217.061462 
	C666.419189,217.061462 668.143860,217.061462 670.137329,217.061462 
	C670.137329,219.332336 670.137329,221.453369 670.137329,223.726517 
	C671.813477,223.955139 673.248413,224.150848 674.649475,224.341949 
	C677.028198,229.103607 672.836365,228.326263 669.949280,229.176544 
	C672.151611,234.742828 665.821594,242.410110 675.192261,246.160889 
z"/>
<path fill="#151515" opacity="1.000000" stroke="none" 
	d="
M459.217194,220.370911 
	C457.415771,224.776871 460.675629,223.943130 462.621033,224.232605 
	C464.649384,228.418701 461.831696,228.716873 458.676788,228.871994 
	C458.676788,235.468353 458.676788,241.906647 458.676788,248.710999 
	C456.770782,248.862213 455.197266,248.987045 453.205444,249.145065 
	C453.205444,242.401276 453.205444,235.829468 453.205444,230.644119 
	C451.138947,228.570053 449.968323,227.395126 448.797668,226.220184 
	C449.934845,225.243195 451.071991,224.266205 452.744781,222.829041 
	C453.488220,215.324051 454.891907,214.189865 463.306488,215.165405 
	C465.800049,219.772095 461.667816,219.127472 459.217194,220.370911 
z"/>
<path fill="#121212" opacity="1.000000" stroke="none" 
	d="
M817.364136,228.617447 
	C816.211487,227.740402 815.509949,226.890808 814.808411,226.041229 
	C816.050171,225.121475 817.291870,224.201736 819.042236,222.905273 
	C819.042236,221.435791 819.042236,219.318390 819.042236,217.067719 
	C821.070496,217.067719 822.789429,217.067719 824.728271,217.067719 
	C824.728271,219.300308 824.728271,221.256790 824.728271,222.783112 
	C826.577820,224.112503 828.070801,225.185623 829.563843,226.258728 
	C828.278687,227.362045 826.993591,228.465393 825.066895,230.119583 
	C825.066895,233.963562 825.066895,238.903183 825.066895,242.852203 
	C827.161438,244.837494 828.666748,246.264267 830.973755,248.450897 
	C820.398438,250.107635 819.081787,248.888214 818.916382,239.996201 
	C818.845886,236.206909 818.199829,232.428329 817.364136,228.617447 
z"/>
<path fill="#121212" opacity="1.000000" stroke="none" 
	d="
M691.099976,223.534714 
	C692.389587,224.994827 693.309143,226.506866 694.438110,228.363129 
	C679.581726,230.356216 686.691528,241.583984 683.941467,248.761627 
	C682.503906,248.761627 680.764832,248.761627 678.902100,248.761627 
	C678.902100,240.702301 678.902100,232.748306 678.902100,223.793091 
	C681.223938,224.412781 683.207275,224.942139 685.768311,225.625687 
	C686.842590,225.184189 688.786255,224.385422 691.099976,223.534714 
z"/>
<path fill="#171717" opacity="1.000000" stroke="none" 
	d="
M495.247986,224.321609 
	C497.276581,224.655334 498.922333,225.160431 501.197052,225.858566 
	C502.933197,225.149521 505.674713,224.029892 509.000488,222.671631 
	C509.000488,225.420807 509.000488,227.023560 509.000488,228.628403 
	C501.182129,229.779312 501.182129,229.779312 500.007660,248.770569 
	C499.108612,248.857986 498.169891,249.007034 497.228943,249.023193 
	C496.421234,249.037048 495.610901,248.899017 494.865143,248.833710 
	C494.865143,240.618927 494.865143,232.555954 495.247986,224.321609 
z"/>
<path fill="#141414" opacity="1.000000" stroke="none" 
	d="
M579.113831,236.997253 
	C579.114014,232.547089 579.114014,228.589737 579.114014,223.654800 
	C581.683350,224.342636 583.593811,224.854080 586.132690,225.533752 
	C587.772278,224.951538 590.423279,224.010178 593.645142,222.866089 
	C593.785950,225.357254 593.867432,226.799088 593.960815,228.451706 
	C579.773926,230.024719 586.941101,241.518097 584.344971,248.812225 
	C582.870850,248.812225 581.270935,248.812225 579.113647,248.812225 
	C579.113647,245.032639 579.113647,241.261337 579.113831,236.997253 
z"/>
<path fill="#FDFDFD" opacity="1.000000" stroke="none" 
	d="
M361.536743,127.218750 
	C356.550781,102.945694 368.743958,82.935074 383.368347,74.051102 
	C411.143066,57.178608 447.428223,73.913803 452.981201,106.210732 
	C457.339844,131.561096 444.009216,155.525299 421.445404,162.902008 
	C395.327057,171.440796 368.512634,155.615341 361.536743,127.218750 
z"/>
<path fill="#FBFBFB" opacity="1.000000" stroke="none" 
	d="
M128.930908,78.070251 
	C135.556915,85.251167 140.156158,93.123840 142.577240,102.662201 
	C111.912720,102.662201 81.832481,102.662201 51.292328,102.662201 
	C54.477531,86.467445 62.065945,73.603752 77.868576,67.879440 
	C96.454857,61.146790 113.866241,63.662910 128.930908,78.070251 
z"/>
<path fill="#F4F4F4" opacity="1.000000" stroke="none" 
	d="
M616.041870,238.827942 
	C618.832153,238.237198 621.218262,237.816467 625.538696,237.054626 
	C623.714111,240.331802 623.012878,243.423950 621.242432,244.264679 
	C619.409912,245.134842 616.540039,243.820587 614.123962,243.461823 
	C614.628479,241.973862 615.133057,240.485886 616.041870,238.827942 
z"/>
<path fill="#F6F6F6" opacity="1.000000" stroke="none" 
	d="
M557.903320,231.814636 
	C563.008911,226.233170 567.009827,226.976578 569.243103,234.142227 
	C565.708130,234.142227 562.353149,234.212860 559.008728,234.057587 
	C558.564331,234.036942 558.173157,232.868881 557.903320,231.814636 
z"/>
<path fill="#F1F1F1" opacity="1.000000" stroke="none" 
	d="
M708.807068,234.166595 
	C705.734802,234.177124 703.114502,234.177124 700.494263,234.177124 
	C700.213562,233.696106 699.932922,233.215103 699.652283,232.734085 
	C701.659790,231.187988 703.499634,228.821732 705.729980,228.365829 
	C707.392883,228.025925 710.061584,229.730164 711.385376,231.286850 
	C713.334900,233.579437 711.565247,234.343643 708.807068,234.166595 
z"/>
<path fill="#F1F1F1" opacity="1.000000" stroke="none" 
	d="
M771.397217,234.170425 
	C770.145447,234.125137 769.333862,234.080215 768.276428,234.021698 
	C768.564453,230.178635 770.895386,227.908478 774.165588,228.267929 
	C776.480591,228.522400 778.563660,230.886871 780.750305,232.309418 
	C780.474792,232.929886 780.199341,233.550339 779.923889,234.170792 
	C777.228394,234.170792 774.532959,234.170792 771.397217,234.170425 
z"/>
<path fill="#F1F1F1" opacity="1.000000" stroke="none" 
	d="
M416.406921,232.694809 
	C417.853485,229.218155 420.264008,227.272217 423.467224,228.344254 
	C425.499115,229.024277 426.995422,231.304596 428.731903,232.867249 
	C428.406342,233.448044 428.080780,234.028839 427.755219,234.609634 
	C423.925018,234.097397 420.094788,233.585144 416.406921,232.694809 
z"/>
<path fill="#F6F6F6" opacity="1.000000" stroke="none" 
	d="
M471.129028,239.411377 
	C471.011963,238.514618 470.938141,238.022308 470.919037,237.527908 
	C470.770172,233.666794 471.416443,229.780441 475.568024,228.712891 
	C477.622162,228.184708 480.997253,229.125336 482.440430,230.657867 
	C485.384949,233.784668 485.371429,238.105118 483.109283,241.680542 
	C482.064453,243.332001 479.081970,245.275894 477.671143,244.840637 
	C475.228943,244.087128 473.326508,241.584076 471.129028,239.411377 
z"/>
</svg>